<svg xmlns="http://www.w3.org/2000/svg" xmlns:xlink="http://www.w3.org/1999/xlink">
	<symbol viewBox="0 0 18 17" id="fb">
		<path
			d="M8.68 15H5.86V7.5H3.98V4.92h1.88V3.38c0-2.12.57-3.4 3.05-3.4H11v2.58H9.7c-.95 0-1 .37-1 1.04v1.3H11l-.28 2.58H8.7L8.68 15z" />
	</symbol>
	
	<symbol viewBox="0 0 15 15" id="tw">
		<path
			d="M4.72 13.19c5.66 0 8.76-4.38 8.76-8.17l-.01-.37c.6-.41 1.12-.91 1.53-1.49-.56.23-1.16.39-1.77.45.64-.36 1.12-.92 1.35-1.59-.6.34-1.26.57-1.95.7-1.16-1.16-3.11-1.21-4.35-.13-.8.7-1.14 1.75-.89 2.74-2.47-.11-4.78-1.21-6.34-3C.23 3.64.65 5.32 2 6.16c-.49-.01-.98-.14-1.4-.36v.04c0 1.37 1.03 2.54 2.47 2.82-.45.11-.93.13-1.39.05.4 1.17 1.56 1.97 2.88 2-1.09.8-2.44 1.23-3.82 1.23-.25 0-.49-.01-.73-.04 1.4.84 3.03 1.29 4.71 1.29" />
	</symbol>
	
	<symbol viewBox="0 0 256 190" id="youtube">
		<path
			d="M102 5.6c-2.5.2-10.8.9-18.5 1.5-20.9 1.7-38.6 4.4-43.6 6.6C28.6 18.9 22.1 28.8 19.5 45c-4.6 29.4-4.6 66.6 0 96 3.4 21.6 13 31.4 33.7 34.5 44.4 6.8 104.7 6.8 149.5.1 20.7-3.1 30.4-13 33.8-34.6 4.6-29.4 4.6-64.8 0-95.3-1.9-12.6-5.1-19.8-11.6-25.9-8-7.5-12.6-8.7-46.9-12.3-13.5-1.5-65.9-2.8-76-1.9zM159.2 22c20.9 1.4 47.6 4.9 50.9 6.5 3.5 1.9 7.5 6.7 8.8 10.7 3.9 12.3 6.1 53.1 4.2 77.1-2.4 29.6-4.9 37-13.6 41.5-2.2 1.1-18.7 3.4-38.5 5.4-16.3 1.6-69.7 1.6-86 0-19.8-2-36.3-4.3-38.5-5.4-8.7-4.5-11.2-11.9-13.6-41.5-2-25.4.5-68.2 4.7-78.1 2-4.8 6-8.9 9.8-10.2 5.8-1.8 30.6-4.7 55.6-6.4 11.4-.7 42.3-.5 56.2.4z">
		</path>
		<path d="M96 93v40l39.5-19.7c21.7-10.9 39.5-20 39.5-20.3 0-.3-17.8-9.4-39.5-20.3L96 53v40z"></path>
	</symbol>
	
	<symbol viewBox="0 0 28 26" id="linkdin">
		<path
			d="M4.98 3.5C4.98 4.881 3.87 6 2.5 6S.02 4.881.02 3.5C.02 2.12 1.13 1 2.5 1s2.48 1.12 2.48 2.5zM5 8H0v16h5V8zm7.982 0H8.014v16h4.969v-8.399c0-4.67 6.029-5.052 6.029 0V24H24V13.869c0-7.88-8.922-7.593-11.018-3.714V8z">
		</path>
	</symbol>
	 
	<symbol viewBox="0 0 18 13" id="email">
		<path
			d="M2 0h14a2 2 0 0 1 2 2v9a2 2 0 0 1-2 2H2a2 2 0 0 1-2-2V2a2 2 0 0 1 2-2zm13.144 1.84L9 5.148 2.856 1.84a.75.75 0 1 0-.712 1.32l6.5 3.5c.222.12.49.12.712 0l6.5-3.5a.75.75 0 0 0-.712-1.32z"
			 ></path>
	</symbol>
	 	 
	<symbol viewBox="0 0 26 23" id="whatsapp">
		<path
			d="M.057 24l1.687-6.163a11.867 11.867 0 0 1-1.587-5.946C.16 5.335 5.495 0 12.05 0a11.817 11.817 0 0 1 8.413 3.488 11.824 11.824 0 0 1 3.48 8.414c-.003 6.557-5.338 11.892-11.893 11.892a11.9 11.9 0 0 1-5.688-1.448L.057 24zm6.597-3.807c1.676.995 3.276 1.591 5.392 1.592 5.448 0 9.886-4.434 9.889-9.885.002-5.462-4.415-9.89-9.881-9.892-5.452 0-9.887 4.434-9.889 9.884-.001 2.225.651 3.891 1.746 5.634l-.999 3.648 3.742-.981zm11.387-5.464c-.074-.124-.272-.198-.57-.347-.297-.149-1.758-.868-2.031-.967-.272-.099-.47-.149-.669.149-.198.297-.768.967-.941 1.165-.173.198-.347.223-.644.074-.297-.149-1.255-.462-2.39-1.475-.883-.788-1.48-1.761-1.653-2.059-.173-.297-.018-.458.13-.606.134-.133.297-.347.446-.521.151-.172.2-.296.3-.495.099-.198.05-.372-.025-.521-.075-.148-.669-1.611-.916-2.206-.242-.579-.487-.501-.669-.51l-.57-.01c-.198 0-.52.074-.792.372s-1.04 1.016-1.04 2.479 1.065 2.876 1.213 3.074c.149.198 2.095 3.2 5.076 4.487.709.306 1.263.489 1.694.626.712.226 1.36.194 1.872.118.571-.085 1.758-.719 2.006-1.413.248-.695.248-1.29.173-1.414z">
		</path>
	</symbol>

	<symbol viewBox="0 0 26 23" id="call">
		<path
			d="M12 2c5.514 0 10 4.486 10 10s-4.486 10-10 10S2 17.514 2 12 6.486 2 12 2zm0-2C5.373 0 0 5.373 0 12s5.373 12 12 12 12-5.373 12-12S18.627 0 12 0zm4.5 17.311l-1.76-3.397-1.032.505c-1.12.543-3.4-3.91-2.305-4.497l1.042-.513L10.698 6l-1.053.52c-3.601 1.877 2.117 12.991 5.8 11.308l1.055-.517z">
		</path>
	</symbol>
	
	<symbol viewBox="0 0 26 23" id="insta">
		<path
			d="M12 2.163c3.204 0 3.584.012 4.85.07 3.252.148 4.771 1.691 4.919 4.919.058 1.265.069 1.645.069 4.849 0 3.205-.012 3.584-.069 4.849-.149 3.225-1.664 4.771-4.919 4.919-1.266.058-1.644.07-4.85.07-3.204 0-3.584-.012-4.849-.07-3.26-.149-4.771-1.699-4.919-4.92-.058-1.265-.07-1.644-.07-4.849 0-3.204.013-3.583.07-4.849.149-3.227 1.664-4.771 4.919-4.919 1.266-.057 1.645-.069 4.849-.069zM12 0C8.741 0 8.333.014 7.053.072 2.695.272.273 2.69.073 7.052.014 8.333 0 8.741 0 12c0 3.259.014 3.668.072 4.948.2 4.358 2.618 6.78 6.98 6.98C8.333 23.986 8.741 24 12 24c3.259 0 3.668-.014 4.948-.072 4.354-.2 6.782-2.618 6.979-6.98.059-1.28.073-1.689.073-4.948 0-3.259-.014-3.667-.072-4.947-.196-4.354-2.617-6.78-6.979-6.98C15.668.014 15.259 0 12 0zm0 5.838a6.162 6.162 0 1 0 0 12.324 6.162 6.162 0 0 0 0-12.324zM12 16a4 4 0 1 1 0-8 4 4 0 0 1 0 8zm6.406-11.845a1.44 1.44 0 1 0 0 2.881 1.44 1.44 0 0 0 0-2.881z">
		</path>
	</symbol>
	
	<symbol viewBox="0 0 622 155" id="dpk">
		<path
			d="M92.28 65.79c0 8.2-1.05 15.37-3.15 21.5-2.1 6.13-5.18 11.21-9.23 15.23-4.05 4.03-9.01 7.04-14.87 9.05-5.86 2-12.84 3-20.95 3H24.02c-1.12 0-2.17-.38-3.15-1.14-.98-.76-1.46-2.09-1.46-3.99V70.55H9.88c-.39 0-.75-.1-1.06-.29-.32-.19-.59-.5-.81-.92-.22-.41-.38-.95-.48-1.61-.1-.66-.15-1.45-.15-2.38 0-.93.05-1.72.15-2.38.1-.66.26-1.21.48-1.65s.49-.76.81-.95c.32-.19.67-.29 1.06-.29h9.52V24.92c0-1.9.49-3.23 1.46-3.99.98-.76 2.03-1.14 3.15-1.14h21.46c8.2 0 15.15 1.06 20.84 3.19C72 25.1 76.76 28.16 80.6 32.14c3.83 3.98 6.74 8.8 8.72 14.47 1.97 5.66 2.96 12.05 2.96 19.18zm-13.33.51c0-5.13-.64-9.9-1.9-14.32-1.27-4.42-3.25-8.24-5.93-11.46-2.69-3.22-6.12-5.74-10.29-7.54-4.17-1.81-9.53-2.71-16.08-2.71H31.93v29.81h17.29c.34 0 .67.1.99.29.32.2.59.51.81.95s.38.99.48 1.65c.1.66.15 1.45.15 2.38 0 .93-.05 1.71-.15 2.34-.1.64-.26 1.17-.48 1.61s-.49.76-.81.95c-.32.2-.65.29-.99.29H31.93v33.47h13.04c6.05 0 11.16-.76 15.31-2.27s7.6-3.83 10.36-6.96c2.76-3.12 4.83-7.04 6.23-11.76 1.38-4.69 2.08-10.27 2.08-16.72zm89.5 10.48c0 6.01-.7 11.43-2.09 16.26s-3.43 8.95-6.12 12.34c-2.69 3.39-6.01 6.01-9.96 7.84s-8.45 2.75-13.48 2.75c-5.13 0-9.41-.72-12.85-2.16s-6.23-3.48-8.35-6.12-3.65-5.81-4.58-9.52c-.93-3.71-1.39-7.86-1.39-12.45 0-2.29.04-4.53.11-6.7s.16-4.33.26-6.48c.1-2.15.18-4.31.26-6.48.07-2.17.11-4.38.11-6.63 0-.63-.01-1.48-.04-2.53-.03-1.05-.09-2.28-.18-3.7-.1-1.42-.21-2.72-.33-3.92-.12-1.2-.18-2.01-.18-2.45 0-.39.08-.73.26-1.03.17-.29.49-.54.95-.73.46-.19 1.07-.33 1.83-.4s1.62-.11 2.6-.11c1.22 0 2.22.04 3 .11.78.07 1.43.22 1.94.44s.87.46 1.06.73c.19.27.32.6.37.99.34 2.3.57 4.54.7 6.74.12 2.2.18 3.96.18 5.27 0 4.44-.12 8.73-.37 12.85-.25 4.13-.37 8.36-.37 12.71 0 3.56.3 6.68.92 9.34.61 2.66 1.56 4.9 2.86 6.7 1.29 1.81 2.93 3.16 4.91 4.06 1.98.9 4.31 1.35 6.99 1.35 2.98 0 5.64-.54 7.98-1.61 2.34-1.07 4.32-2.76 5.93-5.05 1.61-2.29 2.84-5.22 3.7-8.79.85-3.56 1.28-7.84 1.28-12.82 0-2.39-.09-4.88-.26-7.47s-.39-5.19-.66-7.8c-.27-2.61-.62-5.19-1.06-7.73-.44-2.54-.88-4.98-1.32-7.32-.1-.49-.06-.9.11-1.25.17-.34.49-.62.95-.84.46-.22 1.1-.38 1.9-.48.81-.1 1.79-.15 2.97-.15s2.15.04 2.93.11c.78.07 1.42.22 1.9.44.49.22.84.46 1.06.73.22.27.35.6.4.99.44 2.34.85 4.79 1.25 7.32.39 2.54.73 5.1 1.03 7.69.29 2.59.51 5.14.66 7.65.16 2.53.23 4.96.23 7.31zm64.45 18.01c0 3.37-.62 6.37-1.87 9.01s-3.02 4.86-5.31 6.67c-2.3 1.81-5.03 3.17-8.2 4.1-3.17.93-6.67 1.39-10.47 1.39-2.34 0-4.58-.18-6.7-.55s-4.03-.83-5.71-1.39-3.11-1.15-4.28-1.76c-1.17-.61-2.03-1.16-2.56-1.65-.54-.49-.93-1.17-1.17-2.05-.25-.88-.37-2.07-.37-3.59 0-.93.05-1.71.15-2.34.1-.63.22-1.15.37-1.54.15-.39.35-.67.62-.84.27-.17.57-.26.92-.26.54 0 1.33.33 2.38.99 1.05.66 2.34 1.38 3.88 2.16 1.54.78 3.36 1.5 5.46 2.16 2.1.66 4.52.99 7.25.99 2.05 0 3.91-.22 5.57-.66 1.66-.44 3.1-1.09 4.32-1.94 1.22-.85 2.16-1.94 2.82-3.26s.99-2.88.99-4.69c0-1.85-.48-3.42-1.43-4.69-.95-1.27-2.21-2.39-3.77-3.37s-3.32-1.84-5.27-2.6c-1.95-.76-3.97-1.55-6.04-2.38-2.08-.83-4.1-1.77-6.08-2.82a22.985 22.985 0 0 1-5.31-3.85c-1.56-1.51-2.82-3.32-3.77-5.42-.95-2.1-1.43-4.61-1.43-7.54 0-2.59.5-5.06 1.5-7.43s2.5-4.44 4.5-6.23c2-1.78 4.5-3.21 7.51-4.28 3-1.07 6.51-1.61 10.51-1.61 1.76 0 3.52.15 5.27.44s3.34.66 4.76 1.1c1.42.44 2.62.92 3.63 1.43 1 .51 1.76.96 2.27 1.35.51.39.85.73 1.03 1.03.17.29.29.62.37.99s.15.82.22 1.35c.07.54.11 1.2.11 1.98 0 .83-.04 1.55-.11 2.16-.07.61-.2 1.11-.37 1.5-.17.39-.38.67-.62.84-.25.17-.51.26-.81.26-.44 0-1.07-.27-1.9-.81-.83-.54-1.9-1.11-3.22-1.72-1.32-.61-2.87-1.18-4.65-1.72-1.78-.54-3.82-.81-6.12-.81-2.05 0-3.86.23-5.42.7-1.56.46-2.85 1.12-3.85 1.98-1 .85-1.76 1.87-2.27 3.04s-.77 2.44-.77 3.81c0 1.9.49 3.5 1.46 4.8.98 1.29 2.25 2.43 3.81 3.41s3.34 1.86 5.35 2.64c2 .78 4.04 1.59 6.12 2.42 2.07.83 4.13 1.76 6.15 2.78 2.03 1.03 3.82 2.27 5.38 3.74 1.56 1.46 2.82 3.22 3.77 5.27s1.4 4.48 1.4 7.31zm75.08 17.95c0 .39-.1.72-.29.99-.2.27-.51.5-.95.7s-1.05.34-1.83.44c-.78.1-1.76.15-2.93.15-1.22 0-2.22-.05-3-.15-.78-.1-1.39-.25-1.83-.44s-.76-.43-.95-.7c-.2-.27-.29-.6-.29-.99V83.81h-33.62v28.93c0 .39-.1.72-.29.99-.2.27-.51.5-.95.7s-1.05.34-1.83.44c-.78.1-1.78.15-3 .15-1.17 0-2.15-.05-2.93-.15-.78-.1-1.4-.25-1.87-.44-.46-.19-.78-.43-.95-.7-.17-.27-.26-.6-.26-.99V46.82c0-.39.08-.72.26-.99.17-.27.49-.51.95-.73.46-.22 1.09-.37 1.87-.44s1.76-.11 2.93-.11c1.22 0 2.22.04 3 .11.78.07 1.39.22 1.83.44s.76.46.95.73c.19.27.29.6.29.99v26.81h33.62V46.82c0-.39.1-.72.29-.99.19-.27.51-.51.95-.73s1.05-.37 1.83-.44a34.5 34.5 0 0 1 3-.11c1.17 0 2.15.04 2.93.11.78.07 1.39.22 1.83.44s.76.46.95.73c.19.27.29.6.29.99v65.92zm72.73-65.92c0 5.62-.51 11.17-1.54 16.66s-2.66 11.04-4.91 16.63-5.14 11.26-8.68 16.99c-3.54 5.74-7.83 11.61-12.85 17.61a200.564 200.564 0 0 1 1.02 12.74c.1 2.05.16 4.04.18 5.97.02 1.93.04 3.75.04 5.46 0 .39-.1.72-.29.99-.2.27-.51.48-.95.62s-1.05.26-1.83.33-1.76.11-2.93.11-2.15-.04-2.93-.11c-.78-.07-1.4-.18-1.87-.33-.46-.15-.78-.35-.95-.62-.17-.27-.26-.6-.26-.99 0-3.56-.09-6.87-.26-9.92s-.4-6.02-.7-8.9c-.29-2.88-.65-5.72-1.06-8.53-.42-2.81-.93-5.77-1.54-8.9-.61-3.12-1.37-6.49-2.27-10.11-.9-3.61-2-7.6-3.3-11.98-1.29-4.37-2.83-9.22-4.61-14.54-1.78-5.32-3.89-11.16-6.34-17.5-.64-1.61-.57-2.67.18-3.19.76-.51 2.57-.77 5.46-.77 1.37 0 2.49.04 3.37.11s1.59.21 2.12.4c.54.2.94.43 1.21.7.27.27.5.62.7 1.06 2.54 6.74 4.71 12.95 6.52 18.64 1.81 5.69 3.32 10.8 4.54 15.34 1.22 4.54 2.12 8.48 2.71 11.83.59 3.35.98 5.99 1.17 7.95 3.17-4.35 5.93-8.72 8.28-13.11s4.28-8.83 5.82-13.29 2.68-8.97 3.44-13.51c.76-4.54 1.14-9.16 1.14-13.84 0-.78.49-1.35 1.46-1.72.98-.37 2.64-.55 4.98-.55 1.22 0 2.2.04 2.93.11s1.31.21 1.72.4c.41.2.7.44.84.73s.24.64.24 1.03zm66.28 65.99c0 .59-.2 1.03-.59 1.32-.39.29-.93.51-1.61.66-.69.15-1.69.22-3 .22-1.27 0-2.28-.07-3.04-.22-.76-.15-1.31-.37-1.65-.66s-.51-.73-.51-1.32v-6.59c-2.88 3.08-6.09 5.47-9.63 7.18-3.54 1.71-7.29 2.56-11.24 2.56-3.47 0-6.6-.45-9.41-1.35-2.81-.9-5.2-2.21-7.18-3.92-1.98-1.71-3.52-3.81-4.61-6.3s-1.65-5.32-1.65-8.5c0-3.71.76-6.93 2.27-9.67 1.51-2.73 3.69-5 6.52-6.81 2.83-1.81 6.3-3.16 10.4-4.06 4.1-.9 8.72-1.35 13.84-1.35h9.08v-5.13c0-2.54-.27-4.78-.81-6.74-.54-1.95-1.4-3.58-2.6-4.87-1.2-1.29-2.75-2.27-4.65-2.93s-4.25-.99-7.03-.99c-2.98 0-5.65.35-8.02 1.06-2.37.71-4.44 1.49-6.23 2.34-1.78.85-3.27 1.64-4.47 2.34-1.2.71-2.09 1.06-2.67 1.06-.39 0-.73-.1-1.03-.29-.29-.19-.55-.49-.77-.88-.22-.39-.38-.89-.48-1.5-.1-.61-.15-1.28-.15-2.01 0-1.22.08-2.18.26-2.89.17-.71.59-1.38 1.25-2.01.66-.63 1.79-1.38 3.41-2.23 1.61-.85 3.47-1.64 5.57-2.34 2.1-.71 4.39-1.29 6.88-1.76 2.49-.46 5-.7 7.54-.7 4.74 0 8.76.54 12.09 1.61 3.32 1.07 6.01 2.65 8.06 4.72 2.05 2.08 3.54 4.65 4.47 7.73s1.39 6.67 1.39 10.77v44.45zm-12.01-30.1h-10.33c-3.32 0-6.2.28-8.64.84-2.44.56-4.47 1.39-6.08 2.49s-2.8 2.42-3.55 3.96c-.76 1.54-1.14 3.31-1.14 5.31 0 3.42 1.09 6.14 3.26 8.17 2.17 2.03 5.21 3.04 9.12 3.04 3.17 0 6.12-.81 8.83-2.42s5.55-4.08 8.53-7.4V82.71zm92.87 30.1c0 .34-.1.66-.29.95-.2.29-.51.53-.95.7s-1.05.3-1.83.4c-.78.1-1.76.15-2.93.15s-2.15-.05-2.93-.15c-.78-.1-1.42-.23-1.9-.4-.49-.17-.83-.4-1.03-.7-.2-.29-.29-.61-.29-.95V74.87c0-1.9.05-3.85.15-5.82.1-1.98.22-3.92.37-5.82a69.959 69.959 0 0 1-3.7 5.75c-1.34 1.88-2.7 3.75-4.07 5.6l-27.98 38.23c-.34.39-.65.73-.92 1.03-.27.29-.61.53-1.03.7-.42.17-.94.29-1.58.37s-1.42.11-2.34.11c-1.07 0-1.95-.05-2.64-.15-.68-.1-1.23-.23-1.65-.4-.42-.17-.71-.4-.88-.7-.17-.29-.26-.61-.26-.95V46.75c0-.34.08-.66.26-.95.17-.29.49-.54.95-.73.46-.19 1.09-.33 1.87-.4s1.73-.11 2.86-.11c2.34 0 3.96.18 4.83.55s1.32.92 1.32 1.65v38.16c0 1.9-.05 3.8-.15 5.68-.1 1.88-.22 3.75-.37 5.6 1.12-1.85 2.26-3.67 3.41-5.46 1.15-1.78 2.38-3.53 3.7-5.24l28.34-38.75c.29-.39.6-.73.92-1.03.32-.29.71-.52 1.17-.7.46-.17 1.01-.29 1.65-.37.63-.07 1.46-.11 2.49-.11s1.89.04 2.6.11c.71.07 1.27.21 1.69.4.41.2.71.44.88.73.17.29.26.64.26 1.03v66zm45.78 27.1V51.14H544.4V39.42h29.22V9.69h13.18v29.74h29.44v11.72H586.8v88.77h-13.17z">
		</path>
	</symbol>

 	<symbol xmlns="http://www.w3.org/2000/svg" viewBox="0 0 34 36.483" id="crowd">
		<path d="M27.456,15.5c-.322-.061-.865-.154-1.237-.252a44.12,44.12,0,0,0-.5-5.43l-1.508.215c-4.221,4.038-10.99,4.111-16.187,4.479-.051.223-.1.46-.144.7-.5.142-1.155.251-1.416.3a10.191,10.191,0,0,0-.007,2.874c.431.076.969.176,1.414.3.044.237.093.471.145.7.637.052,1.3.1,1.968.147-.226.537-.443,1.115-.7,1.83a22.958,22.958,0,0,0-.8,3.253.54.54,0,0,0,.361.628,28.681,28.681,0,0,0,2.858.579.547.547,0,0,0,.632-.4.554.554,0,0,0-.176-.546c-.835-.715-.468-3.108.424-5.14,4.187.392,8.563,1.2,11.616,4.122l1.506.225a41.2,41.2,0,0,0,.51-5.427c.389-.1,1.014-.223,1.235-.254a12.378,12.378,0,0,0,0-2.91m3.857,1.513a14.29,14.29,0,0,1-14.3,14.27,15.315,15.315,0,0,1-4.211-.631L7.888,32.578l.283-4.343A14.49,14.49,0,0,1,2.689,16.928a14.312,14.312,0,0,1,28.623.09M34,17.026A17,17,0,1,0,5.454,29.446l-.379,7.037,7.738-3.035.179.046a17.838,17.838,0,0,0,4.021.492A17.012,17.012,0,0,0,34,17.026"></path>
	</symbol>


	 
	<symbol viewBox="0 0 80.511 82.481" id="arrow1">
		<path d="M42.266 0l-9.751 9.406L56.2 34.486H0v14.866h56.358L33.908 73.97l11.3 8.511 35.3-41.451z" >
		</path>
	</symbol>

	<symbol viewBox="0 0 25.248 55.534" id="arrow2">
		<path d="M12.167.001v52.668m12.07-10.018L12.38 53.483 1.036 42.651" fill="none"   stroke-width="3">
		</path>
	</symbol>

	<symbol version="1.0" viewBox="0 0 365 366" id="arrow3">
		<path
			d="M180.7 27.2c-.4 8.3-.7 67.9-.7 132.4s-.3 118-.6 118.9c-.5 1.1-2-.9-5.4-7.2-7-13-13.4-21.7-23.5-31.9-11.6-11.8-22.9-20-38.5-27.8-19.1-9.7-55-20.8-56.9-17.7-1.3 2-2.3 11.3-1.4 12.2.4.4 6.1 2.2 12.5 3.8 46.9 12.1 76.9 33.9 95.2 69.1 9.4 18 15.6 44.6 15.6 66.6v8.4h19.7l.6-12.3c.6-12.7 4.2-33.4 7.8-44.7 2.9-9 12.9-28.2 18.8-36.1 18.6-24.6 48.9-42.6 88.1-52 5.2-1.2 9.6-2.3 9.7-2.4.1 0-.3-3.1-.9-6.8-.7-4.4-1.6-6.7-2.5-6.7-3.4 0-22.8 5.2-32.8 8.8-26 9.3-41.4 18.5-58.3 34.7-12.5 11.9-19.8 21.4-26.9 35l-5.2 10-.1-110.6c0-60.8-.3-121.4-.7-134.7l-.6-24.2h-12.4l-.6 15.2z">
		</path>
	</symbol>

	<symbol viewBox="0 0 80 40" id="fullscreen">
		<path d="M0 0h30v3H0z"></path>
		<path d="M3 0v11H0V0zm77 40H50v-3h30z"></path>
		<path d="M77 40V29h3v11zm3-40H50v3h30z"></path>
		<path d="M77 0v11h3V0zM0 40h30v-3H0z"></path>
		<path d="M3 40V29H0v11z"></path>
	</symbol>


	<symbol  viewBox="0 0 10 12" id="play">
		<g id="Polygon_22" transform="translate(10) rotate(90)">
			<path d="M 11.11690044403076 9.500001907348633 L 0.8830999732017517 9.500001907348633 L 6 0.9718352556228638 L 11.11690044403076 9.500001907348633 Z" stroke="none"></path>
			<path d="M 6 1.943652153015137 L 1.766189575195312 9.000001907348633 L 10.23381042480469 9.000001907348633 L 6 1.943652153015137 M 6 1.9073486328125e-06 L 12 10.00000190734863 L 0 10.00000190734863 L 6 1.9073486328125e-06 Z" stroke="none"></path>
		</g>
	</symbol>

<symbol   viewBox="0 0 29.698 29.698" id="close">
		<g transform="translate(-1804.151 -75.392)">
			<line x2="40" transform="translate(1804.858 104.383) rotate(-45)" fill="none" stroke="#fff" stroke-width="2"></line>
			<line x2="40" transform="translate(1804.858 76.099) rotate(45)" fill="none" stroke="#fff" stroke-width="2"></line>
		</g>
	</symbol>

	<symbol  viewBox="0 0 35.689 35.689" id="search">
		<path d="M22.777,23.793a13.657,13.657,0,1,1,1.016-1.016L34.482,33.466l-1.016,1.016L22.777,23.793ZM13.649,1.437A12.212,12.212,0,1,1,1.437,13.649,12.219,12.219,0,0,1,13.649,1.437Z" transform="translate(0.5 0.5)"  stroke-width="1" fill-rule="evenodd"></path>
	</symbol>


	<symbol xmlns="http://www.w3.org/2000/svg" viewBox="0 0 24 24" id="carrow">
		<path d="M5 3l3.057-3 11.943 12-11.943 12-3.057-3 9-9z"></path>
	</symbol>

 

	
</svg>