<svg width="1440" height="888" viewBox="0 0 1440 888" fill="none" xmlns="http://www.w3.org/2000/svg">
<path d="M-287 808.164H1727M-287 413.186H1727M-287 742.334H1727M-287 347.356H1727M-287 676.505H1727M-287 281.527H1727M-287 610.675H1727M-287 215.697H1727M-287 544.845H1727M-287 149.868H1727M-287 479.016H1727M-287 84.0379H1727M299.248 888L299.248 0M-96.2591 888L-96.2591 0M233.33 888L233.33 0M-162.177 888L-162.177 0M167.412 888L167.412 0M-228.095 888L-228.095 0M101.494 888L101.494 0M35.5766 888L35.5765 0M-30.3412 888L-30.3413 0M1081.85 888L1081.85 0M686.34 888L686.34 0M1015.93 888L1015.93 0M620.422 888L620.422 0M950.011 888L950.011 0M554.504 888L554.504 0M884.093 888L884.093 0M488.586 888L488.586 0M818.175 888L818.175 0M422.669 888L422.668 0M752.258 888L752.258 0M356.751 888L356.751 0M1468.94 888L1468.94 0M1403.02 888L1403.02 0M1337.1 888L1337.1 0M1666.69 888L1666.69 0M1271.19 888L1271.19 0M1600.77 888L1600.77 0M1205.27 888L1205.27 0M1534.86 888L1534.86 0M1139.35 888L1139.35 0" stroke="url(#paint0_radial_159_212)" stroke-opacity="0.5"/>
<defs>
<radialGradient id="paint0_radial_159_212" cx="0" cy="0" r="1" gradientUnits="userSpaceOnUse" gradientTransform="translate(726 400) rotate(90.6128) scale(561.032 1272.43)">
<stop stop-color="white" stop-opacity="0.25"/>
<stop offset="1" stop-color="#19174F" stop-opacity="0"/>
</radialGradient>
</defs>
</svg>
