<svg width="29" height="39" viewBox="0 0 29 39" fill="none" xmlns="http://www.w3.org/2000/svg">
<path d="M27.468 13.9242C27.468 17.492 26.2168 20.5379 23.7144 23.0621C23.3356 23.4405 22.9431 23.794 22.5369 24.1223C21.4913 24.9676 20.8719 26.2297 20.8719 27.5734V30.6345L19.9244 31.0714C16.1587 32.552 12.563 32.5762 9.13737 31.1442L8.18987 30.6345V27.5496C8.18987 26.2151 7.57833 24.9608 6.54522 24.1148C6.14685 23.7885 5.75971 23.4376 5.38379 23.0621C2.8571 20.5379 1.59373 17.492 1.59375 13.9242C1.59373 10.3564 2.8571 7.31038 5.38379 4.78624C7.91048 2.26208 10.9716 1 14.5673 1C18.1144 1 21.1634 2.26208 23.7144 4.78624C26.2168 7.31038 27.468 10.3564 27.468 13.9242Z" stroke="#C65110" stroke-width="2" stroke-linecap="round" stroke-linejoin="round"/>
<path d="M20.0733 33.6875C16.2271 35.6685 12.5308 35.6685 8.98438 33.6875" stroke="#C65110" stroke-width="2" stroke-linecap="round" stroke-linejoin="round"/>
<path d="M20.0733 36.2852C16.2271 38.2661 12.5308 38.2661 8.98438 36.2852" stroke="#C65110" stroke-width="2" stroke-linecap="round" stroke-linejoin="round"/>
<path d="M14.5312 32.1955V19.1953" stroke="#C65110" stroke-width="2" stroke-linecap="round" stroke-linejoin="round"/>
<path d="M21.9259 16.5954L16.343 7.31119C15.9249 6.61586 15.405 6.19531 14.533 6.19531H14.5336C13.6615 6.19531 13.1416 6.61586 12.7235 7.31119L7.14062 16.5954" stroke="#C65110" stroke-width="2" stroke-linecap="round" stroke-linejoin="round"/>
</svg>
