<svg width="146" height="146" viewBox="0 0 146 146" fill="none" xmlns="http://www.w3.org/2000/svg">
<path d="M97.9334 88.0424C97.9566 88.931 97.7829 89.8493 97.3864 90.7488C96.99 91.6483 96.4688 92.5016 95.7736 93.3101C94.5988 94.6744 93.2911 95.6717 91.8015 96.328C90.3366 96.9836 88.7406 97.3462 87.0129 97.3912C84.4953 97.4568 81.7895 96.9344 78.9196 95.7989C76.0496 94.6634 73.1688 93.1082 70.3017 91.1328C67.4092 89.1334 64.6591 86.908 62.026 84.4326C59.4169 81.9318 57.0514 79.3012 54.9295 76.5408C52.8323 73.7797 51.1301 71.0083 49.8727 68.2501C48.6147 65.4671 47.9523 62.7922 47.8855 60.2253C47.8418 58.5469 48.0962 56.9348 48.65 55.4385C49.2032 53.9174 50.1051 52.5108 51.3812 51.2426C52.9203 49.6465 54.6282 48.8364 56.4547 48.7889C57.1458 48.7709 57.8407 48.901 58.4655 49.1811C59.1149 49.4606 59.6942 49.8901 60.1552 50.5202L66.0916 58.4423C66.5519 59.0477 66.8876 59.6071 67.1238 60.1443C67.3595 60.6568 67.4964 61.172 67.5086 61.6409C67.524 62.2333 67.3667 62.8302 67.0359 63.4069C66.7298 63.9829 66.2763 64.5875 65.6993 65.1953L63.8742 67.194C63.6098 67.4726 63.4947 67.7967 63.505 68.1916C63.5101 68.389 63.5393 68.5612 63.5938 68.7573C63.673 68.9529 63.7509 69.099 63.8041 69.2458C64.2696 70.0488 65.0624 71.0902 66.1818 72.3454C67.3259 73.6 68.5447 74.8773 69.8623 76.152C71.2292 77.4255 72.5441 78.6015 73.8812 79.6781C75.193 80.7307 76.2736 81.4436 77.1243 81.866C77.249 81.9122 77.399 81.9824 77.5737 82.0519C77.7731 82.1208 77.9712 82.1404 78.1934 82.1346C78.613 82.1237 78.93 81.9672 79.1944 81.6886L81.0221 79.7886C81.6231 79.1555 82.2032 78.6711 82.7632 78.3602C83.3219 77.9998 83.8851 77.8123 84.5022 77.7962C84.9711 77.784 85.4673 77.8699 86.0161 78.0779C86.5649 78.2859 87.141 78.592 87.7689 78.9955L96.0898 84.5831C96.7431 85.0107 97.2008 85.5175 97.4884 86.1275C97.7513 86.7381 97.9154 87.3513 97.9334 88.0424Z" stroke="white" stroke-width="5.92574" stroke-miterlimit="10"/>
<path d="M16.8242 92.1328C23.6931 112.345 41.1622 127.599 62.4817 131.371" stroke="white" stroke-width="5.92574" stroke-miterlimit="10" stroke-linecap="round" stroke-linejoin="round"/>
<path d="M13.8419 68.5623C16.0842 38.5688 40.7132 14.6316 71.3982 13.8328C102.083 13.0339 127.926 35.7165 131.724 65.4934" stroke="white" stroke-width="5.92574" stroke-miterlimit="10" stroke-linecap="round" stroke-linejoin="round"/>
<path d="M86.3659 130.807C107.401 125.933 123.998 109.97 129.926 89.4833" stroke="white" stroke-width="5.92574" stroke-miterlimit="10" stroke-linecap="round" stroke-linejoin="round"/>
</svg>
