<svg width="298" height="298" viewBox="0 0 298 298" fill="none" xmlns="http://www.w3.org/2000/svg">
<path opacity="0.4" d="M254.531 126.536H218.647C189.22 126.536 165.255 102.572 165.255 73.1446V37.2604C165.255 30.4313 159.668 24.8438 152.839 24.8438H100.192C61.9487 24.8438 31.0312 49.6771 31.0312 94.0046V204.016C31.0312 248.344 61.9487 273.177 100.192 273.177H197.787C236.03 273.177 266.948 248.344 266.948 204.016V138.953C266.948 132.124 261.36 126.536 254.531 126.536Z" fill="#1F666E"/>
<path d="M196.2 27.4312C191.109 22.3404 182.293 25.817 182.293 32.8945V76.2287C182.293 94.357 197.69 109.381 216.439 109.381C228.235 109.505 244.625 109.505 258.655 109.505C265.733 109.505 269.458 101.186 264.491 96.2195C246.611 78.2154 214.576 45.8079 196.2 27.4312Z" fill="#1F666E"/>
<path d="M152.466 182.773C148.866 179.173 142.906 179.173 139.305 182.773L130.365 191.713V139.688C130.365 134.597 126.143 130.375 121.052 130.375C115.961 130.375 111.74 134.597 111.74 139.688V191.713L102.8 182.773C99.199 179.173 93.239 179.173 89.6381 182.773C86.0373 186.374 86.0373 192.334 89.6381 195.935L114.471 220.768C114.596 220.893 114.72 220.892 114.72 221.017C115.465 221.762 116.458 222.383 117.451 222.879C118.693 223.252 119.811 223.5 121.052 223.5C122.294 223.5 123.411 223.252 124.529 222.755C125.646 222.258 126.64 221.638 127.633 220.768L152.466 195.935C156.067 192.334 156.067 186.374 152.466 182.773Z" fill="#1F666E"/>
</svg>
