<svg width="188" height="188" viewBox="0 0 188 188" fill="none" xmlns="http://www.w3.org/2000/svg">
<path d="M54.653 93.6875C23.4219 93.6875 23.4219 107.663 23.4219 124.919V132.726C23.4219 154.276 23.4219 171.765 62.4608 171.765H124.923C156.154 171.765 163.962 154.276 163.962 132.726V124.919C163.962 107.663 163.962 93.6875 132.731 93.6875C124.923 93.6875 122.737 95.3271 118.677 98.3722L110.713 106.805C101.5 116.642 85.8841 116.642 76.5929 106.805L68.707 98.3722C64.647 95.3271 62.4608 93.6875 54.653 93.6875Z" stroke="white" stroke-width="7.80778" stroke-miterlimit="10" stroke-linecap="round" stroke-linejoin="round"/>
<path d="M148.344 93.6911V46.8444C148.344 29.5892 148.344 15.6133 117.113 15.6133H70.2663C39.0352 15.6133 39.0352 29.5892 39.0352 46.8444V93.6911" stroke="white" stroke-width="7.80778" stroke-miterlimit="10" stroke-linecap="round" stroke-linejoin="round"/>
<path d="M82.375 72.082H108.375" stroke="white" stroke-width="7.80778" stroke-linecap="round" stroke-linejoin="round"/>
<path d="M75.875 48.6562H114.914" stroke="white" stroke-width="7.80778" stroke-linecap="round" stroke-linejoin="round"/>
</svg>
