<svg width="38" height="37" viewBox="0 0 38 37" fill="none" xmlns="http://www.w3.org/2000/svg">
<path d="M18.8868 35.9983C0.826403 35.9983 11.6694 17.4901 21.9896 14.6094" stroke="#C65110" stroke-width="2" stroke-linecap="round" stroke-linejoin="round"/>
<path d="M9.73373 27.2136C9.73373 27.2136 18.4929 30.592 23.279 24.9811C27.1491 20.444 29.0842 13.3144 28.4391 8.77734C24.5691 11.3699 17.5333 9.51662 11.6688 13.3144C5.21865 17.4914 7.7987 23.3247 7.7987 23.3247" stroke="#C65110" stroke-width="2" stroke-linecap="round" stroke-linejoin="round"/>
<path d="M19.0233 35.9996C28.6414 35.931 36.3829 28.0406 36.3146 18.3758C36.2464 8.71107 28.3942 0.93186 18.7761 1.00045C9.15806 1.06906 1.41646 8.95951 1.48482 18.6243C1.51514 22.9135 3.08097 26.8292 5.65142 29.8545" stroke="#C65110" stroke-width="2" stroke-linecap="round" stroke-linejoin="round"/>
</svg>
