<svg width="41" height="40" viewBox="0 0 41 40" fill="none" xmlns="http://www.w3.org/2000/svg">
<path d="M1.42969 28.3803L11.682 25.5312C13.372 25.0595 14.9493 26.6067 14.4986 28.3237L11.8322 38.6823" stroke="white" stroke-width="2" stroke-linecap="round" stroke-linejoin="round"/>
<path d="M39.0993 11.2831L28.8281 14.1322C27.1382 14.6039 25.5609 13.0567 26.0116 11.3397L28.6779 1" stroke="white" stroke-width="2" stroke-linecap="round" stroke-linejoin="round"/>
<path d="M28.995 38.9996L26.1597 28.6976C25.6902 26.9995 27.23 25.4146 28.9387 25.8674L39.2474 28.5467" stroke="white" stroke-width="2" stroke-linecap="round" stroke-linejoin="round"/>
<path d="M11.9828 1.13281L14.8182 11.4537C15.2876 13.1518 13.7479 14.7367 12.0391 14.2839L1.73047 11.6046" stroke="white" stroke-width="2" stroke-linecap="round" stroke-linejoin="round"/>
<path d="M16.6032 23.565C14.5565 21.5273 14.519 18.2065 16.5469 16.1498C18.5748 14.0932 21.8796 14.0555 23.9263 16.0932C25.973 18.131 26.0106 21.4518 23.9827 23.5084C21.9547 25.565 18.6499 25.6028 16.6032 23.565Z" stroke="white" stroke-width="2" stroke-linecap="round" stroke-linejoin="round"/>
</svg>
