<svg width="55" height="55" viewBox="0 0 55 55" fill="none" xmlns="http://www.w3.org/2000/svg">
<rect width="55" height="55" rx="27.5" fill="white" fill-opacity="0.1"/>
<path d="M22 26.5C21.7239 26.5 21.5 26.7239 21.5 27C21.5 27.2761 21.7239 27.5 22 27.5L22 27L22 26.5ZM34.3536 27.3536C34.5488 27.1583 34.5488 26.8417 34.3536 26.6464L31.1716 23.4645C30.9763 23.2692 30.6597 23.2692 30.4645 23.4645C30.2692 23.6597 30.2692 23.9763 30.4645 24.1716L33.2929 27L30.4645 29.8284C30.2692 30.0237 30.2692 30.3403 30.4645 30.5355C30.6597 30.7308 30.9763 30.7308 31.1716 30.5355L34.3536 27.3536ZM22 27L22 27.5L34 27.5L34 27L34 26.5L22 26.5L22 27Z" fill="white"/>
</svg>
