<svg xmlns="http://www.w3.org/2000/svg" xmlns:xlink="http://www.w3.org/1999/xlink">
	<symbol viewBox="0 0 18 17" id="fb">
		<path
			d="M8.68 15H5.86V7.5H3.98V4.92h1.88V3.38c0-2.12.57-3.4 3.05-3.4H11v2.58H9.7c-.95 0-1 .37-1 1.04v1.3H11l-.28 2.58H8.7L8.68 15z" />
	</symbol>

	<symbol viewBox="0 0 15 15" id="tw">
		<path
			d="M4.72 13.19c5.66 0 8.76-4.38 8.76-8.17l-.01-.37c.6-.41 1.12-.91 1.53-1.49-.56.23-1.16.39-1.77.45.64-.36 1.12-.92 1.35-1.59-.6.34-1.26.57-1.95.7-1.16-1.16-3.11-1.21-4.35-.13-.8.7-1.14 1.75-.89 2.74-2.47-.11-4.78-1.21-6.34-3C.23 3.64.65 5.32 2 6.16c-.49-.01-.98-.14-1.4-.36v.04c0 1.37 1.03 2.54 2.47 2.82-.45.11-.93.13-1.39.05.4 1.17 1.56 1.97 2.88 2-1.09.8-2.44 1.23-3.82 1.23-.25 0-.49-.01-.73-.04 1.4.84 3.03 1.29 4.71 1.29" />
	</symbol>

	<symbol viewBox="0 0 256 190" id="youtube">
		<path
			d="M102 5.6c-2.5.2-10.8.9-18.5 1.5-20.9 1.7-38.6 4.4-43.6 6.6C28.6 18.9 22.1 28.8 19.5 45c-4.6 29.4-4.6 66.6 0 96 3.4 21.6 13 31.4 33.7 34.5 44.4 6.8 104.7 6.8 149.5.1 20.7-3.1 30.4-13 33.8-34.6 4.6-29.4 4.6-64.8 0-95.3-1.9-12.6-5.1-19.8-11.6-25.9-8-7.5-12.6-8.7-46.9-12.3-13.5-1.5-65.9-2.8-76-1.9zM159.2 22c20.9 1.4 47.6 4.9 50.9 6.5 3.5 1.9 7.5 6.7 8.8 10.7 3.9 12.3 6.1 53.1 4.2 77.1-2.4 29.6-4.9 37-13.6 41.5-2.2 1.1-18.7 3.4-38.5 5.4-16.3 1.6-69.7 1.6-86 0-19.8-2-36.3-4.3-38.5-5.4-8.7-4.5-11.2-11.9-13.6-41.5-2-25.4.5-68.2 4.7-78.1 2-4.8 6-8.9 9.8-10.2 5.8-1.8 30.6-4.7 55.6-6.4 11.4-.7 42.3-.5 56.2.4z">
		</path>
		<path d="M96 93v40l39.5-19.7c21.7-10.9 39.5-20 39.5-20.3 0-.3-17.8-9.4-39.5-20.3L96 53v40z"></path>
	</symbol>

	
			<symbol fill="none" xmlns="http://www.w3.org/2000/svg" viewBox="0 0 14 14" id="star">
				<path  d="M5.38073 13.8625L6.05573 8.23751L1.64573 11.5225L0.250732 9.09251L5.51573 6.97751L0.250732 4.86251L1.64573 2.43251L6.05573 5.67251L5.38073 0.137512H8.21573L7.54073 5.67251L11.9957 2.43251L13.3907 4.86251L8.08073 6.97751L13.3457 9.09251L11.9957 11.5225L7.54073 8.23751L8.21573 13.8625H5.38073Z" fill="#6CC04A"></path>
			</symbol>
 

 

	<symbol viewBox="0 0 28 26" id="linkdin">
		<path
			d="M4.98 3.5C4.98 4.881 3.87 6 2.5 6S.02 4.881.02 3.5C.02 2.12 1.13 1 2.5 1s2.48 1.12 2.48 2.5zM5 8H0v16h5V8zm7.982 0H8.014v16h4.969v-8.399c0-4.67 6.029-5.052 6.029 0V24H24V13.869c0-7.88-8.922-7.593-11.018-3.714V8z">
		</path>
	</symbol>

	<symbol viewBox="0 0 18 13" id="email">
		<path
			d="M2 0h14a2 2 0 0 1 2 2v9a2 2 0 0 1-2 2H2a2 2 0 0 1-2-2V2a2 2 0 0 1 2-2zm13.144 1.84L9 5.148 2.856 1.84a.75.75 0 1 0-.712 1.32l6.5 3.5c.222.12.49.12.712 0l6.5-3.5a.75.75 0 0 0-.712-1.32z">
		</path>
	</symbol>

	<symbol viewBox="0 0 26 23" id="whatsapp">
		<path
			d="M.057 24l1.687-6.163a11.867 11.867 0 0 1-1.587-5.946C.16 5.335 5.495 0 12.05 0a11.817 11.817 0 0 1 8.413 3.488 11.824 11.824 0 0 1 3.48 8.414c-.003 6.557-5.338 11.892-11.893 11.892a11.9 11.9 0 0 1-5.688-1.448L.057 24zm6.597-3.807c1.676.995 3.276 1.591 5.392 1.592 5.448 0 9.886-4.434 9.889-9.885.002-5.462-4.415-9.89-9.881-9.892-5.452 0-9.887 4.434-9.889 9.884-.001 2.225.651 3.891 1.746 5.634l-.999 3.648 3.742-.981zm11.387-5.464c-.074-.124-.272-.198-.57-.347-.297-.149-1.758-.868-2.031-.967-.272-.099-.47-.149-.669.149-.198.297-.768.967-.941 1.165-.173.198-.347.223-.644.074-.297-.149-1.255-.462-2.39-1.475-.883-.788-1.48-1.761-1.653-2.059-.173-.297-.018-.458.13-.606.134-.133.297-.347.446-.521.151-.172.2-.296.3-.495.099-.198.05-.372-.025-.521-.075-.148-.669-1.611-.916-2.206-.242-.579-.487-.501-.669-.51l-.57-.01c-.198 0-.52.074-.792.372s-1.04 1.016-1.04 2.479 1.065 2.876 1.213 3.074c.149.198 2.095 3.2 5.076 4.487.709.306 1.263.489 1.694.626.712.226 1.36.194 1.872.118.571-.085 1.758-.719 2.006-1.413.248-.695.248-1.29.173-1.414z">
		</path>
	</symbol>

	<symbol viewBox="0 0 26 23" id="call">
		<path
			d="M12 2c5.514 0 10 4.486 10 10s-4.486 10-10 10S2 17.514 2 12 6.486 2 12 2zm0-2C5.373 0 0 5.373 0 12s5.373 12 12 12 12-5.373 12-12S18.627 0 12 0zm4.5 17.311l-1.76-3.397-1.032.505c-1.12.543-3.4-3.91-2.305-4.497l1.042-.513L10.698 6l-1.053.52c-3.601 1.877 2.117 12.991 5.8 11.308l1.055-.517z">
		</path>
	</symbol>

	<symbol viewBox="0 0 26 23" id="insta">
		<path
			d="M12 2.163c3.204 0 3.584.012 4.85.07 3.252.148 4.771 1.691 4.919 4.919.058 1.265.069 1.645.069 4.849 0 3.205-.012 3.584-.069 4.849-.149 3.225-1.664 4.771-4.919 4.919-1.266.058-1.644.07-4.85.07-3.204 0-3.584-.012-4.849-.07-3.26-.149-4.771-1.699-4.919-4.92-.058-1.265-.07-1.644-.07-4.849 0-3.204.013-3.583.07-4.849.149-3.227 1.664-4.771 4.919-4.919 1.266-.057 1.645-.069 4.849-.069zM12 0C8.741 0 8.333.014 7.053.072 2.695.272.273 2.69.073 7.052.014 8.333 0 8.741 0 12c0 3.259.014 3.668.072 4.948.2 4.358 2.618 6.78 6.98 6.98C8.333 23.986 8.741 24 12 24c3.259 0 3.668-.014 4.948-.072 4.354-.2 6.782-2.618 6.979-6.98.059-1.28.073-1.689.073-4.948 0-3.259-.014-3.667-.072-4.947-.196-4.354-2.617-6.78-6.979-6.98C15.668.014 15.259 0 12 0zm0 5.838a6.162 6.162 0 1 0 0 12.324 6.162 6.162 0 0 0 0-12.324zM12 16a4 4 0 1 1 0-8 4 4 0 0 1 0 8zm6.406-11.845a1.44 1.44 0 1 0 0 2.881 1.44 1.44 0 0 0 0-2.881z">
		</path>
	</symbol>

	 

	<symbol viewBox="0 0 80.511 82.481" id="arrow1">
		<path d="M42.266 0l-9.751 9.406L56.2 34.486H0v14.866h56.358L33.908 73.97l11.3 8.511 35.3-41.451z"></path>
	</symbol>

	<symbol viewBox="0 0 25.248 55.534" id="arrow2">
		<path d="M12.167.001v52.668m12.07-10.018L12.38 53.483 1.036 42.651" fill="none" stroke-width="3"></path>
	</symbol>

	<symbol version="1.0" viewBox="0 0 365 366" id="arrow3">
		<path
			d="M180.7 27.2c-.4 8.3-.7 67.9-.7 132.4s-.3 118-.6 118.9c-.5 1.1-2-.9-5.4-7.2-7-13-13.4-21.7-23.5-31.9-11.6-11.8-22.9-20-38.5-27.8-19.1-9.7-55-20.8-56.9-17.7-1.3 2-2.3 11.3-1.4 12.2.4.4 6.1 2.2 12.5 3.8 46.9 12.1 76.9 33.9 95.2 69.1 9.4 18 15.6 44.6 15.6 66.6v8.4h19.7l.6-12.3c.6-12.7 4.2-33.4 7.8-44.7 2.9-9 12.9-28.2 18.8-36.1 18.6-24.6 48.9-42.6 88.1-52 5.2-1.2 9.6-2.3 9.7-2.4.1 0-.3-3.1-.9-6.8-.7-4.4-1.6-6.7-2.5-6.7-3.4 0-22.8 5.2-32.8 8.8-26 9.3-41.4 18.5-58.3 34.7-12.5 11.9-19.8 21.4-26.9 35l-5.2 10-.1-110.6c0-60.8-.3-121.4-.7-134.7l-.6-24.2h-12.4l-.6 15.2z">
		</path>
	</symbol>

	  <symbol clip-rule="evenodd" fill-rule="evenodd" stroke-linejoin="round" stroke-miterlimit="2" xmlns="http://www.w3.org/2000/svg" viewBox="0 0 24 24" id="arrow5">
    <path d="m14.523 18.787s4.501-4.505 6.255-6.26c.146-.146.219-.338.219-.53s-.073-.383-.219-.53c-1.753-1.754-6.255-6.258-6.255-6.258-.144-.145-.334-.217-.524-.217-.193 0-.385.074-.532.221-.293.292-.295.766-.004 1.056l4.978 4.978h-14.692c-.414 0-.75.336-.75.75s.336.75.75.75h14.692l-4.979 4.979c-.289.289-.286.762.006 1.054.148.148.341.222.533.222.19 0 .378-.072.522-.215z" fill-rule="nonzero"></path>
  </symbol>
  

	<symbol viewBox="0 0 80 40" id="fullscreen">
		<path d="M0 0h30v3H0z"></path>
		<path d="M3 0v11H0V0zm77 40H50v-3h30z"></path>
		<path d="M77 40V29h3v11zm3-40H50v3h30z"></path>
		<path d="M77 0v11h3V0zM0 40h30v-3H0z"></path>
		<path d="M3 40V29H0v11z"></path>
	</symbol>

	<symbol viewBox="0 0 10 12" id="play">
		<g id="Polygon_22" transform="translate(10) rotate(90)">
			<path
				d="M 11.11690044403076 9.500001907348633 L 0.8830999732017517 9.500001907348633 L 6 0.9718352556228638 L 11.11690044403076 9.500001907348633 Z"
				stroke="none"></path>
			<path
				d="M 6 1.943652153015137 L 1.766189575195312 9.000001907348633 L 10.23381042480469 9.000001907348633 L 6 1.943652153015137 M 6 1.9073486328125e-06 L 12 10.00000190734863 L 0 10.00000190734863 L 6 1.9073486328125e-06 Z"
				stroke="none"></path>
		</g>
	</symbol>

	<symbol viewBox="0 0 29.698 29.698" id="close">
		<g transform="translate(-1804.151 -75.392)">
			<line x2="40" transform="translate(1804.858 104.383) rotate(-45)" fill="none" stroke="#fff"
				stroke-width="2"></line>
			<line x2="40" transform="translate(1804.858 76.099) rotate(45)" fill="none" stroke="#fff" stroke-width="2">
			</line>
		</g>
	</symbol>

	<symbol viewBox="0 0 35.689 35.689" id="search">
		<path
			d="M22.777,23.793a13.657,13.657,0,1,1,1.016-1.016L34.482,33.466l-1.016,1.016L22.777,23.793ZM13.649,1.437A12.212,12.212,0,1,1,1.437,13.649,12.219,12.219,0,0,1,13.649,1.437Z"
			transform="translate(0.5 0.5)" stroke-width="1" fill-rule="evenodd"></path>
	</symbol>

	<symbol xmlns="http://www.w3.org/2000/svg" viewBox="0 0 24 24" id="carrow">
		<path d="M5 3l3.057-3 11.943 12-11.943 12-3.057-3 9-9z"></path>
	</symbol>
</svg>