<svg width="1381" height="594" viewBox="0 0 1381 594" fill="none" xmlns="http://www.w3.org/2000/svg">
<path d="M131.885 193.883L66.6338 104.164L177.085 92.6087L257.629 84.1125C270.883 82.7531 280.738 96.1771 275.301 108.412L242.335 182.329L197.136 283.773L131.885 193.883Z" fill="url(#paint0_linear_1042_1048)"/>
<path d="M106.057 317.758L0.533813 283.433L83.117 209.176L143.27 155.14C153.126 146.134 169.099 151.402 171.817 164.486L188.64 243.671L211.75 352.252L106.057 317.758Z" fill="url(#paint1_linear_1042_1048)"/>
<path d="M158.562 433.816L53.0392 468.14L76.1489 359.559L92.9714 280.374C95.6902 267.29 111.663 262.192 121.519 271.028L181.672 325.234L264.255 399.491L158.562 433.816Z" fill="url(#paint2_linear_1042_1048)"/>
<path d="M267.649 496.518L202.398 586.408L157.198 484.963L124.233 411.046C118.795 398.812 128.651 385.388 141.905 386.747L222.449 395.243L332.9 406.798L267.649 496.518Z" fill="url(#paint3_linear_1042_1048)"/>
<path d="M393.396 482.755V593.716L297.219 538.151L227.041 497.879C215.486 491.252 215.486 474.429 227.041 467.802L297.219 427.36L393.396 371.795V482.755Z" fill="url(#paint4_linear_1042_1048)"/>
<path d="M486.858 398.641L552.109 488.531L441.658 500.086L361.114 508.582C347.86 509.942 338.005 496.518 343.442 484.283L376.408 410.366L421.607 308.922L486.858 398.641Z" fill="url(#paint5_linear_1042_1048)"/>
<path d="M513.193 277.656L618.716 311.98L536.133 386.237L475.98 440.443C466.124 449.449 450.151 444.181 447.433 431.097L430.61 351.913L407.5 243.331L513.193 277.656Z" fill="url(#paint6_linear_1042_1048)"/>
<path d="M459.665 161.088L565.188 126.763L542.078 235.345L525.256 314.53C522.537 327.614 506.564 332.711 496.708 323.875L436.555 269.67L354.142 195.413L459.665 161.088Z" fill="url(#paint7_linear_1042_1048)"/>
<path d="M348.881 98.0457L414.132 8.15576L459.331 109.77L492.297 183.687C497.734 195.922 487.879 209.346 474.625 207.987L394.081 199.49L283.63 187.936L348.881 98.0457Z" fill="url(#paint8_linear_1042_1048)"/>
<path d="M224.49 110.96V0L320.667 55.5652L390.846 96.0072C402.401 102.634 402.401 119.457 390.846 126.084L320.667 166.526L224.49 222.091V110.96Z" fill="url(#paint9_linear_1042_1048)"/>
<path d="M1022.47 291.59C1022.47 301.616 1026.37 323.706 1052.71 323.706C1060.87 323.706 1069.54 320.138 1073.78 313.511V322.517H1086.02V287.682C1087.21 248.939 1022.47 245.371 1022.47 291.59ZM1073.78 294.309C1073.78 307.733 1064.27 313.85 1054.58 313.85C1051.52 313.85 1034.7 312.661 1034.7 291.251C1034.7 272.049 1046.94 267.971 1054.58 267.971C1064.95 267.971 1073.78 274.428 1073.78 287.512V294.309Z" fill="white"/>
<path d="M1108.6 322.517V313.511C1112.85 320.138 1121.52 323.706 1129.67 323.706C1156.01 323.706 1159.92 301.446 1159.92 291.59C1159.92 265.932 1141.23 257.946 1127.81 257.946C1120.16 257.946 1113.7 259.815 1108.43 263.383V235.685H1096.37V322.687H1108.6V322.517ZM1108.6 287.342C1108.09 261.514 1148.37 259.645 1147.69 291.251C1147.69 312.661 1130.86 313.851 1127.81 313.851C1118.29 313.851 1108.6 307.733 1108.6 294.309V287.342Z" fill="white"/>
<path d="M1019.23 269.33L1022.46 259.644C1001.56 252.847 979.301 264.912 979.98 287.682V322.516H992.215V287.342C992.215 271.029 1006.49 264.572 1019.23 269.33Z" fill="white"/>
<path d="M914.563 304.164H952.116L958.913 322.685H970.977L941.411 241.292C938.862 233.985 927.986 233.815 925.438 241.292L895.871 322.685H907.935L914.563 304.164ZM933.424 252.507L948.547 293.968H918.301L933.424 252.507Z" fill="white"/>
<path d="M776.573 291.25V322.686H788.808V291.76C788.808 266.101 770.116 258.115 756.692 258.115C749.045 258.115 742.588 259.984 737.321 263.553V235.855H725.256V322.856H737.321V287.682C736.811 261.513 777.253 259.644 776.573 291.25Z" fill="white"/>
<path d="M832.316 323.706C843.531 323.366 850.498 319.118 854.916 313.341L844.891 306.374C835.885 318.268 812.945 316.569 810.396 295.329H861.373V287.342C861.203 269.16 848.629 257.775 829.937 257.775C816.513 257.775 797.822 265.762 797.822 291.42C797.822 305.184 804.449 325.745 832.316 323.706ZM830.107 267.971C839.793 267.971 848.289 273.748 849.139 285.303H810.736C812.945 271.199 823.31 267.971 830.107 267.971Z" fill="white"/>
<path d="M687.361 319.458V244.861H713.019V235.006H650.147V244.861H675.806V319.458H687.361Z" fill="white"/>
<path d="M949.222 388.447C935.798 388.447 917.107 396.433 917.107 422.092C917.107 432.117 921.015 454.377 947.353 454.377C955.51 454.377 964.176 450.639 968.424 444.012V453.018C968.084 476.468 948.543 475.448 933.25 471.88L930.871 481.565C958.738 488.702 980.828 478.507 980.658 447.58V418.184C980.489 400.002 967.914 388.447 949.222 388.447ZM968.254 424.811C968.254 438.235 958.738 444.352 949.053 444.352C945.994 444.352 929.171 443.162 929.171 421.752C929.171 402.55 941.406 398.472 949.053 398.472C959.418 398.472 968.254 404.929 968.254 418.014V424.811Z" fill="white"/>
<path d="M874.287 418.014V452.848H886.521V417.674C886.521 401.361 900.795 394.904 913.539 399.662L916.768 389.976C895.867 383.179 873.607 395.414 874.287 418.014Z" fill="white"/>
<path d="M832.477 388.278C819.053 388.278 800.361 396.264 800.361 421.923C800.361 431.778 803.42 454.548 832.307 454.548C846.581 454.548 853.038 449.45 857.286 443.843L847.26 436.876C838.764 448.94 814.805 447.241 812.766 425.831H863.743V417.844C863.743 399.492 851.169 388.108 832.477 388.278ZM813.106 415.465C815.485 401.532 825.68 398.133 832.477 398.133C842.163 398.133 850.659 403.911 851.508 415.465H813.106Z" fill="white"/>
<path d="M664.089 452.849H718.974V442.653H676.153V414.276H713.706V404.08H676.153V375.873H718.974V365.677H664.089V452.849Z" fill="white"/>
<path d="M1042 424.98C1042 438.404 1032.48 444.351 1022.97 444.351C1019.91 444.351 1003.08 443.162 1003.08 421.921V389.296H990.849V422.261C990.849 432.117 994.588 454.377 1020.93 454.377C1029.08 454.377 1037.75 450.808 1041.83 444.181V453.187C1041.49 476.467 1021.95 475.447 1006.65 472.049L1004.27 481.734C1031.97 488.701 1054.06 478.676 1053.89 447.919V389.296H1041.66V424.98H1042Z" fill="white"/>
<path d="M729.338 418.014V452.849H740.893V417.674C740.384 391.846 779.126 389.977 778.277 421.583V453.018H790.001V422.092C790.001 375.703 728.149 379.101 729.338 418.014Z" fill="white"/>
<path d="M1368.94 365.847V393.545C1363.84 390.147 1357.21 388.107 1349.56 388.107C1336.14 388.107 1317.45 396.094 1317.45 421.752C1317.45 431.778 1321.36 453.868 1347.69 453.868C1355.85 453.868 1364.52 450.3 1368.77 443.673V452.679H1381V365.677H1368.94V365.847ZM1368.77 424.471C1368.77 437.895 1359.25 444.013 1349.56 444.013C1346.51 444.013 1329.68 442.823 1329.68 421.413C1329.68 402.211 1341.92 398.133 1349.56 398.133C1359.93 398.133 1368.77 404.59 1368.77 417.674V424.471Z" fill="white"/>
<path d="M1114.56 452.848H1126.63V414.445H1166.56V404.25H1126.63V376.042H1171.66V365.847H1114.56V452.848Z" fill="white"/>
<path d="M1226.2 424.47C1226.71 450.299 1187.97 452.168 1188.82 420.562V389.126H1177.09V420.052C1177.09 466.272 1238.95 462.873 1237.76 423.961V389.126H1226.2V424.47Z" fill="white"/>
<path d="M1248.11 418.184V453.019H1259.67V417.844C1259.16 392.016 1297.9 390.147 1297.05 421.753V453.189H1308.78V422.262C1308.78 375.703 1246.92 379.272 1248.11 418.184Z" fill="white"/>
<path d="M1192.89 129.823C1185.25 129.823 1174.54 134.41 1174.54 149.024C1174.54 154.631 1176.75 167.376 1191.87 167.376C1196.63 167.376 1201.56 165.337 1203.94 161.598V166.696C1203.94 176.382 1197.65 178.591 1192.55 178.591C1190.17 178.591 1187.45 178.591 1183.72 177.571L1182.36 183.179C1186.26 184.198 1189.83 184.368 1192.21 184.368C1204.45 184.368 1210.73 176.042 1210.73 163.807V146.985C1210.73 136.28 1203.6 129.823 1192.89 129.823ZM1203.77 150.553C1203.77 158.2 1198.33 161.768 1192.89 161.768C1191.19 161.768 1181.51 161.089 1181.51 148.854C1181.51 137.979 1188.47 135.43 1192.89 135.43C1198.84 135.43 1203.77 139.168 1203.77 146.645V150.553Z" fill="white"/>
<path d="M718.287 129.823C710.64 129.823 700.105 134.41 700.105 149.024C700.105 152.083 700.785 157.86 704.183 161.938H698.236C690.419 161.938 686.341 159.729 686.341 152.083V129.823H670.029C660.683 129.823 650.147 135.94 650.147 149.024C650.147 160.579 656.774 167.546 668.499 167.546C674.277 167.546 679.035 164.997 682.093 161.089C684.472 165.677 689.4 167.546 697.046 167.546H718.117C733.07 167.546 736.129 155.991 736.129 149.024C736.129 138.319 730.182 129.823 718.287 129.823ZM680.054 150.553C680.054 156.84 675.976 162.108 668.499 162.108C662.212 162.108 657.114 157.52 657.114 149.194C657.114 140.698 662.722 135.43 670.538 135.43H680.224V150.553H680.054ZM718.287 161.938C716.758 161.938 706.902 161.938 706.902 149.534C706.902 138.319 713.869 135.6 718.287 135.6C725.084 135.6 729.502 140.188 729.502 149.534C729.332 156.501 726.104 161.938 718.287 161.938Z" fill="white"/>
<path d="M1148.03 129.823C1140.38 129.823 1129.68 134.41 1129.68 149.024C1129.68 154.631 1132.06 167.376 1146.67 167.376C1151.94 167.376 1156.53 164.997 1158.91 161.428V165.167C1158.91 176.042 1149.56 181.31 1134.61 181.31C1121.01 181.31 1104.02 173.493 1114.73 149.194L1108.44 145.965C1100.11 162.788 1102.15 187.087 1134.44 187.087C1154.32 187.087 1165.87 179.44 1165.87 163.637V146.815C1165.87 137.809 1160.1 129.823 1148.03 129.823ZM1158.91 150.553C1158.91 158.2 1153.47 161.768 1148.03 161.768C1146.33 161.768 1136.65 161.089 1136.65 148.854C1136.65 137.979 1143.44 134.92 1148.03 134.92C1154.66 134.92 1158.91 140.528 1158.91 146.135V150.553Z" fill="white"/>
<path d="M683.286 114.528C683.116 109.091 675.13 109.091 674.96 114.528C675.13 119.966 683.116 119.966 683.286 114.528Z" fill="white"/>
<path d="M672.755 114.528C672.585 109.091 664.599 109.091 664.429 114.528C664.599 119.966 672.585 119.966 672.755 114.528Z" fill="white"/>
<path d="M727.98 117.078C727.81 111.64 719.823 111.64 719.654 117.078C719.823 122.515 727.81 122.515 727.98 117.078Z" fill="white"/>
<path d="M717.449 117.078C717.279 111.641 709.292 111.641 709.122 117.078C709.292 122.516 717.279 122.516 717.449 117.078Z" fill="white"/>
<path d="M1159.07 117.078C1158.9 111.641 1150.91 111.641 1150.74 117.078C1150.91 122.516 1158.9 122.516 1159.07 117.078Z" fill="white"/>
<path d="M1274.79 121.156C1274.62 115.718 1266.64 115.718 1266.47 121.156C1266.64 126.593 1274.79 126.593 1274.79 121.156Z" fill="white"/>
<path d="M1148.54 117.078C1148.37 111.641 1140.38 111.641 1140.21 117.078C1140.38 122.516 1148.37 122.516 1148.54 117.078Z" fill="white"/>
<path d="M1086.52 111.301H1079.55V167.546H1086.52V111.301Z" fill="white"/>
<path d="M961.45 153.611C961.45 161.088 957.542 161.938 954.313 161.938H951.764C943.608 161.598 940.379 159.559 931.373 150.383L927.465 155.141C931.203 158.879 934.262 161.768 937.321 163.807C934.602 167.545 927.465 171.623 916.59 171.623C902.996 171.623 886.004 163.807 896.709 139.508L890.422 136.279C882.095 153.102 884.134 177.401 916.42 177.401C929.844 177.401 938.34 173.323 942.588 166.696C944.457 167.375 946.496 167.715 948.875 167.715H954.313C962.979 167.715 968.247 163.637 968.247 154.801V132.881H961.45V153.611Z" fill="white"/>
<path d="M1060.52 154.462C1060.52 160.749 1056.61 161.938 1053.38 161.938H1039.62C1045.91 157.35 1047.95 151.403 1047.95 145.965C1047.95 137.469 1043.36 129.823 1028.75 129.823C1024.33 129.823 1018.21 131.352 1013.11 133.561C1008.86 135.26 1007.34 140.528 1010.05 144.266C1020.93 160.069 1023.14 161.768 1023.48 161.938H1006.15C998.329 161.938 994.761 159.729 994.761 152.083V132.881H987.794V166.866C987.794 176.552 981.507 178.761 976.409 178.761C974.54 178.761 972.331 178.761 969.442 178.251L968.423 183.858C971.481 184.368 974.37 184.538 976.239 184.538C987.964 184.538 994.251 176.892 994.761 165.507C997.14 167.036 1000.54 167.886 1005.13 167.886H1021.95C1025.86 167.886 1028.75 167.206 1031.12 166.526C1036.22 167.886 1040.3 167.886 1042 167.886H1054.91C1063.58 167.886 1067.49 163.807 1067.49 154.971V111.301H1060.69V154.462H1060.52ZM1030.95 160.749C1025.69 157.52 1020.08 147.665 1014.13 139.508C1018.04 137.809 1023.48 135.43 1028.75 135.43C1036.9 135.43 1041.66 139.508 1041.66 145.286C1041.83 152.762 1036.39 158.54 1030.95 160.749Z" fill="white"/>
<path d="M1381 111.301H1374.03V167.546H1381V111.301Z" fill="white"/>
<path d="M1355 111.301V154.462C1355 160.749 1351.09 161.938 1347.87 161.938H1336.14C1339.2 158.88 1340.73 154.631 1340.73 149.194C1340.73 136.959 1332.57 129.992 1319.66 129.992C1309.12 129.992 1298.59 136.959 1294.68 143.077V132.881H1287.88V161.938H1273.95V132.881H1267.15V161.938H1253.56V147.325C1253.56 135.26 1245.23 125.065 1222.63 131.862L1224.67 137.809C1229.43 135.43 1247.27 131.692 1247.27 148.514V162.108H1218.89V167.716H1349.9C1351.94 167.716 1361.8 167.376 1361.8 154.801V111.301H1355ZM1320.17 161.938H1294.85V155.821C1294.85 144.436 1308.78 136.11 1319.83 136.11C1328.83 136.11 1334.1 141.207 1334.1 149.534C1334.1 157.35 1328.15 161.938 1321.36 161.938H1320.17Z" fill="white"/>
<path d="M918.129 187.595C918.299 193.033 926.286 193.033 926.456 187.595C926.286 182.157 918.129 182.157 918.129 187.595Z" fill="white"/>
<path d="M948.881 180.8C949.05 186.238 957.037 186.238 957.207 180.8C957.037 175.193 949.05 175.193 948.881 180.8Z" fill="white"/>
<path d="M907.423 187.595C907.592 193.033 915.579 193.033 915.749 187.595C915.579 182.157 907.592 182.157 907.423 187.595Z" fill="white"/>
<path d="M859.839 154.97C859.839 160.068 857.63 162.447 852.363 162.447C847.435 162.447 844.716 160.238 844.716 155.48V111.3H837.919V154.46C837.919 160.748 834.011 161.937 830.782 161.937H819.567C822.626 158.878 824.155 154.63 824.155 149.193C824.155 136.958 815.999 129.991 803.085 129.991C792.549 129.991 782.014 136.958 778.106 143.075V111.3H771.309V161.767H761.793C757.205 161.767 753.127 160.748 753.127 153.611V111.13H746.16V151.911C746.16 162.787 750.068 167.375 759.244 167.375H830.952C835.54 167.375 839.958 166.525 841.658 163.466C843.357 166.185 847.605 167.884 852.533 167.884C862.388 167.884 866.976 162.617 866.976 155.99V111.3H860.009V154.97H859.839ZM804.614 161.937H778.106V155.82C778.106 144.435 792.04 136.108 803.085 136.108C812.091 136.108 817.358 141.206 817.358 149.533C817.358 157.349 811.411 161.937 804.614 161.937Z" fill="white"/>
<defs>
<linearGradient id="paint0_linear_1042_1048" x1="274.477" y1="92.1667" x2="132.517" y2="193.508" gradientUnits="userSpaceOnUse">
<stop stop-color="white"/>
<stop offset="0.1778" stop-color="#FBE5E5" stop-opacity="0.5863"/>
<stop offset="0.4015" stop-color="#F8C8C7" stop-opacity="0.2466"/>
<stop offset="0.6038" stop-color="#F5B0B0" stop-opacity="0.080089"/>
<stop offset="0.7773" stop-color="#F3A09F" stop-opacity="0.016641"/>
<stop offset="0.9151" stop-color="#F29594" stop-opacity="0.01"/>
<stop offset="1" stop-color="#F29291" stop-opacity="0"/>
</linearGradient>
<linearGradient id="paint1_linear_1042_1048" x1="161.636" y1="151.669" x2="106.357" y2="317.098" gradientUnits="userSpaceOnUse">
<stop stop-color="white"/>
<stop offset="0.1778" stop-color="#FBE5E5" stop-opacity="0.5863"/>
<stop offset="0.4015" stop-color="#F8C8C7" stop-opacity="0.2466"/>
<stop offset="0.6038" stop-color="#F5B0B0" stop-opacity="0.080089"/>
<stop offset="0.7773" stop-color="#F3A09F" stop-opacity="0.016641"/>
<stop offset="0.9151" stop-color="#F29594" stop-opacity="0.01"/>
<stop offset="1" stop-color="#F29291" stop-opacity="0"/>
</linearGradient>
<linearGradient id="paint2_linear_1042_1048" x1="105.9" y1="266.724" x2="158.415" y2="433.053" gradientUnits="userSpaceOnUse">
<stop stop-color="white"/>
<stop offset="0.1778" stop-color="#FBE5E5" stop-opacity="0.5863"/>
<stop offset="0.4015" stop-color="#F8C8C7" stop-opacity="0.2466"/>
<stop offset="0.6038" stop-color="#F5B0B0" stop-opacity="0.080089"/>
<stop offset="0.7773" stop-color="#F3A09F" stop-opacity="0.016641"/>
<stop offset="0.9151" stop-color="#F29594" stop-opacity="0.01"/>
<stop offset="1" stop-color="#F29291" stop-opacity="0"/>
</linearGradient>
<linearGradient id="paint3_linear_1042_1048" x1="126.734" y1="392.398" x2="266.984" y2="496.092" gradientUnits="userSpaceOnUse">
<stop stop-color="white"/>
<stop offset="0.1778" stop-color="#FBE5E5" stop-opacity="0.5863"/>
<stop offset="0.4015" stop-color="#F8C8C7" stop-opacity="0.2466"/>
<stop offset="0.6038" stop-color="#F5B0B0" stop-opacity="0.080089"/>
<stop offset="0.7773" stop-color="#F3A09F" stop-opacity="0.016641"/>
<stop offset="0.9151" stop-color="#F29594" stop-opacity="0.01"/>
<stop offset="1" stop-color="#F29291" stop-opacity="0"/>
</linearGradient>
<linearGradient id="paint4_linear_1042_1048" x1="218.147" y1="481.345" x2="392.562" y2="482.799" gradientUnits="userSpaceOnUse">
<stop stop-color="white"/>
<stop offset="0.1778" stop-color="#FBE5E5" stop-opacity="0.5863"/>
<stop offset="0.4015" stop-color="#F8C8C7" stop-opacity="0.2466"/>
<stop offset="0.6038" stop-color="#F5B0B0" stop-opacity="0.080089"/>
<stop offset="0.7773" stop-color="#F3A09F" stop-opacity="0.016641"/>
<stop offset="0.9151" stop-color="#F29594" stop-opacity="0.01"/>
<stop offset="1" stop-color="#F29291" stop-opacity="0"/>
</linearGradient>
<linearGradient id="paint5_linear_1042_1048" x1="344.207" y1="500.381" x2="486.167" y2="399.038" gradientUnits="userSpaceOnUse">
<stop stop-color="white"/>
<stop offset="0.1778" stop-color="#FBE5E5" stop-opacity="0.5863"/>
<stop offset="0.4015" stop-color="#F8C8C7" stop-opacity="0.2466"/>
<stop offset="0.6038" stop-color="#F5B0B0" stop-opacity="0.080089"/>
<stop offset="0.7773" stop-color="#F3A09F" stop-opacity="0.016641"/>
<stop offset="0.9151" stop-color="#F29594" stop-opacity="0.01"/>
<stop offset="1" stop-color="#F29291" stop-opacity="0"/>
</linearGradient>
<linearGradient id="paint6_linear_1042_1048" x1="457.686" y1="443.847" x2="512.966" y2="278.417" gradientUnits="userSpaceOnUse">
<stop stop-color="white"/>
<stop offset="0.1778" stop-color="#FBE5E5" stop-opacity="0.5863"/>
<stop offset="0.4015" stop-color="#F8C8C7" stop-opacity="0.2466"/>
<stop offset="0.6038" stop-color="#F5B0B0" stop-opacity="0.080089"/>
<stop offset="0.7773" stop-color="#F3A09F" stop-opacity="0.016641"/>
<stop offset="0.9151" stop-color="#F29594" stop-opacity="0.01"/>
<stop offset="1" stop-color="#F29291" stop-opacity="0"/>
</linearGradient>
<linearGradient id="paint7_linear_1042_1048" x1="512.446" y1="328.139" x2="459.932" y2="161.811" gradientUnits="userSpaceOnUse">
<stop stop-color="white"/>
<stop offset="0.1778" stop-color="#FBE5E5" stop-opacity="0.5863"/>
<stop offset="0.4015" stop-color="#F8C8C7" stop-opacity="0.2466"/>
<stop offset="0.6038" stop-color="#F5B0B0" stop-opacity="0.080089"/>
<stop offset="0.7773" stop-color="#F3A09F" stop-opacity="0.016641"/>
<stop offset="0.9151" stop-color="#F29594" stop-opacity="0.01"/>
<stop offset="1" stop-color="#F29291" stop-opacity="0"/>
</linearGradient>
<linearGradient id="paint8_linear_1042_1048" x1="489.759" y1="202.254" x2="349.508" y2="98.5595" gradientUnits="userSpaceOnUse">
<stop stop-color="white"/>
<stop offset="0.1778" stop-color="#FBE5E5" stop-opacity="0.5863"/>
<stop offset="0.4015" stop-color="#F8C8C7" stop-opacity="0.2466"/>
<stop offset="0.6038" stop-color="#F5B0B0" stop-opacity="0.080089"/>
<stop offset="0.7773" stop-color="#F3A09F" stop-opacity="0.016641"/>
<stop offset="0.9151" stop-color="#F29594" stop-opacity="0.01"/>
<stop offset="1" stop-color="#F29291" stop-opacity="0"/>
</linearGradient>
<linearGradient id="paint9_linear_1042_1048" x1="399.708" y1="112.476" x2="225.292" y2="111.022" gradientUnits="userSpaceOnUse">
<stop stop-color="white"/>
<stop offset="0.1778" stop-color="#FBE5E5" stop-opacity="0.5863"/>
<stop offset="0.4015" stop-color="#F8C8C7" stop-opacity="0.2466"/>
<stop offset="0.6038" stop-color="#F5B0B0" stop-opacity="0.080089"/>
<stop offset="0.7772" stop-color="#F3A09F" stop-opacity="0.016641"/>
<stop offset="0.915" stop-color="#F29594" stop-opacity="0.01"/>
<stop offset="0.9999" stop-color="#F29291" stop-opacity="0"/>
</linearGradient>
</defs>
</svg>
