<svg width="170" height="31" viewBox="0 0 170 31" fill="none" xmlns="http://www.w3.org/2000/svg">
<g clip-path="url(#clip0_1408_5964)">
<path fill-rule="evenodd" clip-rule="evenodd" d="M29.499 0.726432C30.4916 -0.23451 32.0563 -0.23888 33.0541 0.694266L33.1486 0.786982L33.4712 1.12945C36.7395 4.6879 37.9574 8.83477 37.645 12.8847C37.3281 16.9917 35.4557 20.8647 32.8436 23.9253C30.2332 26.9839 26.7479 29.3926 22.9806 30.438C19.1659 31.4965 14.9938 31.159 11.3722 28.5711C8.30046 26.376 7.13098 22.8286 7.05154 19.3823C5.32784 18.5265 3.51417 17.4629 1.61121 16.1694L1.10838 15.8238L1.00127 15.7456C-0.0790984 14.9101 -0.326123 13.3639 0.461269 12.2287C1.2489 11.0936 2.78255 10.7857 3.94197 11.5072L4.0535 11.5804L4.51158 11.8957C5.65155 12.6706 6.7393 13.3423 7.77362 13.9222C8.44085 11.5521 9.54646 9.27644 11.0029 7.40063C13.185 4.5905 16.4566 2.34319 20.4646 2.67849C24.0748 2.98071 26.7422 4.86578 28.1191 7.52614C29.4522 10.1022 29.472 13.201 28.3068 15.866C27.1189 18.5829 24.7074 20.8463 21.2383 21.779C18.7418 22.4501 15.8171 22.404 12.5171 21.5052V21.5065C11.2035 21.1486 9.82677 20.6543 8.388 20.0124C8.06523 19.8684 7.78431 20.0884 8.388 20.4702C10.087 21.6909 12.4804 22.714 13.173 23.0574C13.5003 23.5934 13.9062 24.0331 14.3715 24.3655C16.5125 25.8955 19.0171 26.1758 21.6019 25.4585C24.2342 24.7281 26.8724 22.9668 28.9187 20.5693C30.9634 18.1735 32.2817 15.303 32.4989 12.4867C32.7039 9.82932 31.9463 7.09935 29.6641 4.61856L29.4385 4.37952L29.3485 4.28112C28.4504 3.25199 28.5069 1.68731 29.499 0.726432ZM20.0348 7.82765C18.3789 7.68909 16.6313 8.57142 15.0785 10.5712C13.8958 12.0943 13.001 14.0732 12.5448 16.1095C15.7946 17.2341 18.2165 17.2417 19.8994 16.7894C21.8475 16.2657 23.0157 15.08 23.5779 13.7941C24.1628 12.4563 24.1028 10.9985 23.5357 9.90264C23.0122 8.89119 21.9584 7.9887 20.0348 7.82765Z" fill="#00DC33"/>
<path d="M105.93 10.5418C104.492 10.5418 103.569 9.44915 103.769 7.98331C103.969 6.5175 105.191 5.4248 106.629 5.4248C108.067 5.4248 108.99 6.5175 108.79 7.98331C108.59 9.44915 107.369 10.5418 105.93 10.5418Z" fill="#00390E"/>
<path d="M102.008 24.9069L103.806 11.7412H107.728L105.93 24.9069H102.008Z" fill="#00390E"/>
<path fill-rule="evenodd" clip-rule="evenodd" d="M108.903 18.4576L107.254 30.5305H111.176L112.141 23.468C112.792 24.6406 114.015 25.2536 115.558 25.2536C118.487 25.2536 122.132 23.0682 122.758 18.4842C123.337 14.2466 120.85 11.395 116.745 11.395C112.796 11.395 109.507 14.0334 108.903 18.4576ZM118.805 18.3243C118.547 20.2165 117.165 21.5224 115.388 21.5224C113.609 21.5224 112.585 20.2165 112.843 18.3243C113.102 16.4321 114.483 15.1262 116.261 15.1262C118.039 15.1262 119.064 16.4321 118.805 18.3243Z" fill="#00390E"/>
<path d="M127.982 25.2536C124.661 25.2536 122.764 23.4413 123.057 20.9095H126.927C126.859 21.6024 127.309 21.9489 128.38 21.9489C129.583 21.9489 130.034 21.5224 130.11 20.9628C130.222 20.1417 129.419 20.0174 128.353 19.8528L128.349 19.8521C128.275 19.8406 128.199 19.8289 128.122 19.8168C126.381 19.5503 123.514 19.0972 123.947 15.9257C124.311 13.2606 126.632 11.395 129.848 11.395C133.064 11.395 134.793 13.2873 134.548 15.6591H130.73C130.709 15.0462 130.233 14.6998 129.449 14.6998C128.482 14.6998 128.02 15.2061 127.947 15.7391C127.843 16.5024 128.683 16.6342 129.783 16.8068L129.942 16.8318C131.762 17.0983 134.543 17.6047 134.118 20.7229C133.746 23.4413 131.302 25.2536 127.982 25.2536Z" fill="#00390E"/>
<path d="M150.137 17.4981L149.125 24.9071H153.047L154.059 17.4981C154.3 15.7391 155.22 15.1262 156.397 15.1262C157.547 15.1262 158.3 15.7391 158.06 17.4981L157.048 24.9071H160.97L161.982 17.4981C162.223 15.7391 163.143 15.1262 164.293 15.1262C165.47 15.1262 166.223 15.7391 165.983 17.4981L164.971 24.9071H168.893L169.906 17.4981C170.484 13.2606 168.333 11.395 165.195 11.395C163.339 11.395 161.723 12.1146 160.567 13.5005C159.789 12.1146 158.344 11.395 156.513 11.395C153.376 11.395 150.716 13.2606 150.137 17.4981Z" fill="#00390E"/>
<path d="M135.567 18.5639C134.959 23.0147 137.216 25.2533 141.034 25.2533C144.852 25.2533 147.723 22.988 148.328 18.5639L149.259 11.7412H145.337L144.406 18.5639C144.122 20.6427 143.008 21.5222 141.543 21.5222C140.079 21.5222 139.206 20.6427 139.489 18.5639L140.421 11.7412H136.499L135.567 18.5639Z" fill="#00390E"/>
<path fill-rule="evenodd" clip-rule="evenodd" d="M87.4382 18.3243C86.8928 22.322 89.369 25.2536 93.4482 25.2536C97.5274 25.2536 100.804 22.322 101.35 18.3243C101.896 14.3266 99.4197 11.395 95.3405 11.395C91.2613 11.395 87.9843 14.3266 87.4382 18.3243ZM97.3751 18.3243C97.1167 20.2165 95.7351 21.5224 93.9574 21.5224C92.179 21.5224 91.1543 20.2165 91.4128 18.3243C91.6713 16.4321 93.0528 15.1262 94.8305 15.1262C96.609 15.1262 97.6336 16.4321 97.3751 18.3243Z" fill="#00390E"/>
<path fill-rule="evenodd" clip-rule="evenodd" d="M74.9474 24.0157C73.3629 22.7927 72.5771 20.7557 72.9091 18.3243C73.455 14.3266 76.7317 11.395 80.8106 11.395C84.8898 11.395 87.366 14.3266 86.8206 18.3243C86.2929 22.1858 83.2175 25.0526 79.3329 25.2435C80.2475 25.7736 81.5767 26.2022 82.5537 26.5173C82.8798 26.6225 83.1667 26.7151 83.386 26.7946C84.2729 27.0206 84.839 27.8629 84.7021 28.8675C84.5414 30.0452 83.4744 31 82.3183 31H76.0416C73.7304 31 72.1177 29.0904 72.4393 26.7349H79.1329C77.6037 26.132 75.9873 24.9262 74.9474 24.0157ZM79.4283 21.5224C81.206 21.5224 82.5875 20.2165 82.846 18.3243C83.1044 16.4321 82.0798 15.1262 80.3014 15.1262C78.5237 15.1262 77.1421 16.4321 76.8837 18.3243C76.6254 20.2165 77.6498 21.5224 79.4283 21.5224Z" fill="#00390E"/>
<path fill-rule="evenodd" clip-rule="evenodd" d="M58.3836 18.3243C57.8377 22.322 60.3138 25.2536 64.393 25.2536C68.4723 25.2536 71.749 22.322 72.2949 18.3243C72.8408 14.3266 70.3647 11.395 66.2855 11.395C62.2063 11.395 58.9295 14.3266 58.3836 18.3243ZM68.3203 18.3243C68.0619 20.2165 66.6807 21.5224 64.9026 21.5224C63.1244 21.5224 62.0999 20.2165 62.3583 18.3243C62.6166 16.4321 63.9979 15.1262 65.7759 15.1262C67.5541 15.1262 68.5786 16.4321 68.3203 18.3243Z" fill="#00390E"/>
<path d="M44.6172 24.9075L46.9973 7.47754H51.2333L49.3992 20.9098H57.4793L56.9333 24.9075H44.6172Z" fill="#00390E"/>
</g>
<defs>
<clipPath id="clip0_1408_5964">
<rect width="170" height="31" fill="white"/>
</clipPath>
</defs>
</svg>
