<svg width="18" height="19" viewBox="0 0 18 19" fill="none" xmlns="http://www.w3.org/2000/svg">
<path d="M18 1.29102C18 0.738731 17.5523 0.291016 17 0.291016H8C7.44772 0.291016 7 0.738731 7 1.29102C7 1.8433 7.44772 2.29102 8 2.29102H16V10.291C16 10.8433 16.4477 11.291 17 11.291C17.5523 11.291 18 10.8433 18 10.291V1.29102ZM0.292893 16.5839C-0.0976311 16.9744 -0.0976311 17.6076 0.292893 17.9981C0.683417 18.3886 1.31658 18.3886 1.70711 17.9981L1 17.291L0.292893 16.5839ZM17 1.29102L16.2929 0.583909L0.292893 16.5839L1 17.291L1.70711 17.9981L17.7071 1.99812L17 1.29102Z" fill="white"/>
</svg>
