<svg width="343" height="298" viewBox="0 0 343 298" fill="none" xmlns="http://www.w3.org/2000/svg">
<path d="M13.0505 42.0463C16.4069 27.2286 28.3483 15.9035 43.2937 13.3639L118.75 0.542359C144.223 -3.78598 166.306 18.445 161.879 43.96L151.915 101.391C149.068 117.803 135.766 130.367 119.254 132.242L41.6614 141.052C16.053 143.96 -4.7564 120.66 0.950096 95.4668L13.0505 42.0463Z" fill="white"/>
<path d="M153.986 197.234C151.385 180.511 137.935 167.604 121.154 165.728L42.5922 156.945C16.7212 154.052 -4.12123 177.86 2.10077 203.198L15.2115 256.588C18.767 271.067 30.5392 282.061 45.1988 284.593L119.587 297.441C144.818 301.798 166.867 280.046 162.923 254.688L153.986 197.234Z" fill="white"/>
<path d="M329.949 42.0466C326.593 27.2288 314.652 15.9037 299.706 13.3642L224.25 0.542586C198.777 -3.78575 176.694 18.4452 181.121 43.9602L191.085 101.391C193.932 117.803 207.234 130.367 223.746 132.242L301.339 141.053C326.947 143.961 347.756 120.66 342.05 95.467L329.949 42.0466Z" fill="white"/>
<path d="M189.014 197.234C191.615 180.511 205.065 167.604 221.846 165.728L300.408 156.945C326.279 154.052 347.121 177.86 340.899 203.198L327.789 256.588C324.233 271.067 312.461 282.061 297.801 284.593L223.413 297.441C198.182 301.798 176.133 280.046 180.077 254.688L189.014 197.234Z" fill="white"/>
</svg>
