<svg width="10" height="10" viewBox="0 0 10 10" fill="none" xmlns="http://www.w3.org/2000/svg">
<path d="M0.294884 8.29293C0.099622 8.48819 0.099622 8.80478 0.294884 9.00004C0.490146 9.1953 0.806729 9.1953 1.00199 9.00004L0.648438 8.64648L0.294884 8.29293ZM9.14844 0.646484C9.14844 0.370342 8.92458 0.146485 8.64844 0.146484L4.14844 0.146485C3.87229 0.146485 3.64844 0.370342 3.64844 0.646485C3.64844 0.922627 3.8723 1.14648 4.14844 1.14648L8.14844 1.14648L8.14844 5.14648C8.14844 5.42263 8.37229 5.64648 8.64844 5.64648C8.92458 5.64648 9.14844 5.42263 9.14844 5.14648L9.14844 0.646484ZM0.648438 8.64648L1.00199 9.00004L9.00199 1.00004L8.64844 0.646485L8.29488 0.292931L0.294884 8.29293L0.648438 8.64648Z" fill="white"/>
</svg>
