<svg width="338" height="363" viewBox="0 0 338 363" fill="none" xmlns="http://www.w3.org/2000/svg">
<path d="M272.738 155.624C272.637 154.775 271.997 154.093 271.157 153.933C268.403 153.409 264.729 152.754 261.654 152.019C260.794 151.813 260.192 151.048 260.164 150.164C259.628 133.212 258.086 116.369 255.543 99.5295C255.379 98.4459 254.37 97.7003 253.285 97.8569L240.858 99.6506C240.445 99.7103 240.059 99.8999 239.756 100.187C198.237 139.551 132.194 140.681 80.9018 144.157C80.0268 144.216 79.3006 144.839 79.1104 145.695C78.8034 147.078 78.5067 148.535 78.2491 150.008C78.1147 150.777 77.559 151.41 76.8039 151.608C72.8559 152.644 68.278 153.507 65.4976 153.972C64.63 154.117 63.9454 154.799 63.8297 155.671C62.7024 164.169 62.7042 172.852 63.8349 181.349C63.9484 182.202 64.6067 182.876 65.4535 183.03C69.0817 183.687 73.2256 184.509 76.8336 185.495C77.5729 185.698 78.1171 186.318 78.254 187.072C78.5114 188.489 78.8075 189.928 79.1138 191.303C79.3028 192.151 80.0265 192.772 80.8927 192.841C85.9087 193.242 91.0094 193.642 96.2566 194.043C97.6235 194.148 98.4844 195.565 97.9628 196.833C96.0574 201.465 94.1848 206.483 92.0418 212.494C88.0955 223.463 85.1675 239.024 84.1491 244.892C83.6402 247.57 85.1675 250.249 87.7137 251.141C97.0071 253.565 106.555 255.478 116.102 256.881C118.903 257.391 121.703 255.733 122.34 252.927C122.849 250.886 122.085 248.845 120.558 247.442C112.462 240.454 115.699 217.596 124.188 197.618C124.524 196.826 125.336 196.348 126.192 196.429C167.171 200.293 209.709 208.534 239.635 236.929C239.933 237.212 240.312 237.4 240.718 237.462L253.033 239.36C254.118 239.527 255.135 238.79 255.307 237.706C257.96 220.983 259.5 204.148 260.035 187.2C260.063 186.316 260.665 185.551 261.525 185.344C264.595 184.602 268.509 183.85 270.899 183.412C271.739 183.257 272.393 182.593 272.513 181.748C273.758 173.003 273.77 164.264 272.738 155.624ZM310.875 169.256C310.623 247.698 247.226 311.471 168.933 311.216C155.031 311.091 141.13 308.99 127.834 305.157C127.408 305.034 126.954 305.054 126.541 305.216L81.3512 322.948C79.9874 323.484 78.5299 322.419 78.6249 320.957L81.1534 282.03C81.1959 281.377 80.9145 280.744 80.4056 280.333C46.6581 253.034 26.8622 212.018 26.7361 168.49C26.9908 90.0493 90.8964 26.5305 169.315 26.7856C247.736 27.0407 311.132 90.9418 310.875 169.256ZM337.607 169.384C337.607 76.2737 262.376 0.255739 169.315 0.000644458C76.2565 -0.25445 0.257177 75.2535 0.00243638 168.363C-0.250609 215.368 19.2182 260.36 53.4169 292.336C53.852 292.743 54.0875 293.321 54.0551 293.916L50.4568 359.888C50.3774 361.343 51.8308 362.392 53.1866 361.858L126.488 332.993C126.854 332.849 127.255 332.816 127.64 332.898L128.833 333.154C141.945 336.343 155.311 337.873 168.805 338.001C260.97 338.129 337.607 263.003 337.607 169.384Z" fill="white"/>
</svg>
