<svg width="21" height="20" viewBox="0 0 21 20" fill="none" xmlns="http://www.w3.org/2000/svg">
<path d="M16.9922 17.465L11.7664 12.2392C11.3516 12.571 10.8747 12.8337 10.3355 13.0272C9.79635 13.2208 9.22262 13.3175 8.61433 13.3175C7.10743 13.3175 5.83209 12.7956 4.78832 11.7519C3.74454 10.7081 3.22266 9.43276 3.22266 7.92586C3.22266 6.41895 3.74454 5.14361 4.78832 4.09984C5.83209 3.05607 7.10743 2.53418 8.61433 2.53418C10.1212 2.53418 11.3966 3.05607 12.4403 4.09984C13.4841 5.14361 14.006 6.41895 14.006 7.92586C14.006 8.53415 13.9092 9.10788 13.7157 9.64704C13.5221 10.1862 13.2595 10.6632 12.9277 11.0779L18.1535 16.3037L16.9922 17.465ZM8.61433 11.6586C9.65119 11.6586 10.5325 11.2957 11.2583 10.5699C11.9841 9.84405 12.347 8.96272 12.347 7.92586C12.347 6.889 11.9841 6.00766 11.2583 5.28186C10.5325 4.55606 9.65119 4.19316 8.61433 4.19316C7.57747 4.19316 6.69614 4.55606 5.97034 5.28186C5.24453 6.00766 4.88163 6.889 4.88163 7.92586C4.88163 8.96272 5.24453 9.84405 5.97034 10.5699C6.69614 11.2957 7.57747 11.6586 8.61433 11.6586Z" fill="#9FADBD"/>
</svg>
